<svg xmlns="http://www.w3.org/2000/svg" viewBox="0 0 64 64">
<defs><style>
.po-line{fill:none;stroke:#2b2623;stroke-width:2.8;stroke-linecap:round;stroke-linejoin:round}
.po-fill{fill:#fff7e8;stroke:#2b2623;stroke-width:2.8;stroke-linecap:round;stroke-linejoin:round}
.po-yellow{fill:#ffd966;stroke:#2b2623;stroke-width:2.8;stroke-linecap:round;stroke-linejoin:round}
.po-green{fill:#9ee7c1;stroke:#2b2623;stroke-width:2.8;stroke-linecap:round;stroke-linejoin:round}
.po-blue{fill:#9ed0f6;stroke:#2b2623;stroke-width:2.8;stroke-linecap:round;stroke-linejoin:round}
.po-red{fill:#ff9f8a;stroke:#2b2623;stroke-width:2.8;stroke-linecap:round;stroke-linejoin:round}
</style></defs>
<path class="po-red" d="M34 57c12-4 18-12 18-23 0-9-5-16-14-23 1 9-3 13-8 16 1-7-3-12-9-16 1 11-9 16-9 28 0 11 10 18 22 18z"/>
    <path class="po-yellow" d="M32 53c6-3 9-8 9-14 0-5-3-9-7-12 0 5-2 8-6 10 1-4-1-7-4-10 0 8-5 11-5 18 0 6 5 10 13 8z"/>
</svg>
