<svg xmlns="http://www.w3.org/2000/svg" style="display:none">
  <!-- Plant Ops Academy SVG icon sprite. Usage: <svg><use href="#icon-plant"></use></svg> -->
  <defs>
    <style>
      .po-line{fill:none;stroke:#2b2623;stroke-width:2.8;stroke-linecap:round;stroke-linejoin:round}
      .po-fill{fill:#fff7e8;stroke:#2b2623;stroke-width:2.8;stroke-linecap:round;stroke-linejoin:round}
      .po-yellow{fill:#ffd966;stroke:#2b2623;stroke-width:2.8;stroke-linecap:round;stroke-linejoin:round}
      .po-green{fill:#9ee7c1;stroke:#2b2623;stroke-width:2.8;stroke-linecap:round;stroke-linejoin:round}
      .po-blue{fill:#9ed0f6;stroke:#2b2623;stroke-width:2.8;stroke-linecap:round;stroke-linejoin:round}
      .po-red{fill:#ff9f8a;stroke:#2b2623;stroke-width:2.8;stroke-linecap:round;stroke-linejoin:round}
    </style>
  </defs>

  <symbol id="icon-plant" viewBox="0 0 64 64">
    <path class="po-blue" d="M8 54V34h14v20"/>
    <path class="po-line" d="M8 42h14M15 34V20"/>
    <path class="po-fill" d="M30 54V18h15v36"/>
    <path class="po-line" d="M30 28h15M30 38h15"/>
    <path class="po-yellow" d="M47 54V30h8v24"/>
    <path class="po-line" d="M6 54h52M50 30V16M47 16h8"/>
    <path class="po-line" d="M15 20c6-4 11-4 15 0"/>
  </symbol>

  <symbol id="icon-clipboard" viewBox="0 0 64 64">
    <rect class="po-fill" x="15" y="10" width="34" height="46" rx="4"/>
    <path class="po-yellow" d="M25 8h14l2 7H23z"/>
    <path class="po-line" d="M23 26h18M23 35h18M23 44h13"/>
  </symbol>

  <symbol id="icon-flask" viewBox="0 0 64 64">
    <path class="po-line" d="M26 8h12M29 8v18L16 50c-2 4 1 8 6 8h20c5 0 8-4 6-8L35 26V8"/>
    <path class="po-blue" d="M22 46h20l5 9H17z"/>
    <circle class="po-fill" cx="39" cy="42" r="2"/>
    <circle class="po-fill" cx="26" cy="51" r="2"/>
  </symbol>

  <symbol id="icon-target" viewBox="0 0 64 64">
    <circle class="po-fill" cx="32" cy="32" r="22"/>
    <circle class="po-green" cx="32" cy="32" r="14"/>
    <circle class="po-yellow" cx="32" cy="32" r="6"/>
    <path class="po-line" d="M42 22l9-9M47 13h4v4"/>
  </symbol>

  <symbol id="icon-gear" viewBox="0 0 64 64">
    <path class="po-yellow" d="M28 7h8l2 7 6 3 7-2 4 7-5 5v8l5 5-4 7-7-2-6 3-2 7h-8l-2-7-6-3-7 2-4-7 5-5v-8l-5-5 4-7 7 2 6-3z"/>
    <circle class="po-fill" cx="32" cy="32" r="8"/>
  </symbol>

  <symbol id="icon-leaf" viewBox="0 0 64 64">
    <path class="po-green" d="M52 12C30 12 14 25 14 45c18 3 33-9 38-33z"/>
    <path class="po-line" d="M14 45c12-10 22-16 38-33M23 54c0-9 2-17 7-25"/>
  </symbol>

  <symbol id="icon-shield" viewBox="0 0 64 64">
    <path class="po-blue" d="M32 7l21 8v14c0 14-8 23-21 28C19 52 11 43 11 29V15z"/>
    <path class="po-line" d="M32 16v31M21 29h22"/>
  </symbol>

  <symbol id="icon-thermometer" viewBox="0 0 64 64">
    <path class="po-fill" d="M28 36V13a7 7 0 0114 0v23a15 15 0 11-14 0z"/>
    <path class="po-red" d="M32 38V17h6v21a9 9 0 11-6 0z"/>
  </symbol>

  <symbol id="icon-heat-waves" viewBox="0 0 64 64">
    <path class="po-line" d="M16 15c-5 6 5 8 0 14s5 8 0 14M32 15c-5 6 5 8 0 14s5 8 0 14M48 15c-5 6 5 8 0 14s5 8 0 14"/>
    <path class="po-red" d="M12 52c6-4 10 4 16 0s10 4 16 0 8 2 8 2"/>
  </symbol>

  <symbol id="icon-bell" viewBox="0 0 64 64">
    <path class="po-yellow" d="M18 45h28l-4-6V27a10 10 0 00-20 0v12z"/>
    <path class="po-line" d="M28 50a4 4 0 008 0M32 13v-4"/>
  </symbol>

  <symbol id="icon-relief-valve" viewBox="0 0 64 64">
    <path class="po-fill" d="M25 24h14v22H25z"/>
    <path class="po-line" d="M32 8v16M22 8h20M17 46h30M32 46v10M20 56h24"/>
    <path class="po-blue" d="M12 28h13v8H12zM39 28h13v8H39z"/>
    <circle class="po-yellow" cx="32" cy="35" r="5"/>
  </symbol>

  <symbol id="icon-flame" viewBox="0 0 64 64">
    <path class="po-red" d="M34 57c12-4 18-12 18-23 0-9-5-16-14-23 1 9-3 13-8 16 1-7-3-12-9-16 1 11-9 16-9 28 0 11 10 18 22 18z"/>
    <path class="po-yellow" d="M32 53c6-3 9-8 9-14 0-5-3-9-7-12 0 5-2 8-6 10 1-4-1-7-4-10 0 8-5 11-5 18 0 6 5 10 13 8z"/>
  </symbol>

  <symbol id="icon-filter" viewBox="0 0 64 64">
    <path class="po-fill" d="M14 12h36L38 30v20l-12 6V30z"/>
    <path class="po-line" d="M22 21h20M28 31h8"/>
  </symbol>

  <symbol id="icon-water-drop" viewBox="0 0 64 64">
    <path class="po-blue" d="M32 7C22 21 16 31 16 41a16 16 0 0032 0C48 31 42 21 32 7z"/>
    <path class="po-line" d="M25 43c2 4 6 6 11 5"/>
  </symbol>

  <symbol id="icon-water-neutralization" viewBox="0 0 64 64">
    <path class="po-blue" d="M32 8C24 19 20 26 20 34a12 12 0 0024 0C44 26 40 19 32 8z"/>
    <path class="po-line" d="M15 47c5 5 29 5 34 0M20 54c7 4 17 4 24 0"/>
    <path class="po-line" d="M27 34h10M32 29v10"/>
  </symbol>

  <symbol id="icon-cloud" viewBox="0 0 64 64">
    <path class="po-fill" d="M22 49h26a10 10 0 000-20h-1A15 15 0 0018 34a8 8 0 004 15z"/>
  </symbol>

  <symbol id="icon-cube" viewBox="0 0 64 64">
    <path class="po-fill" d="M32 8l22 12v24L32 56 10 44V20z"/>
    <path class="po-line" d="M10 20l22 12 22-12M32 32v24M21 14l22 12"/>
  </symbol>

  <symbol id="icon-music" viewBox="0 0 64 64">
    <circle class="po-yellow" cx="32" cy="32" r="25"/>
    <path class="po-line" d="M39 17v25a6 6 0 11-4-6V22l-16 4v20a6 6 0 11-4-6V22z"/>
  </symbol>

  <symbol id="icon-engineer" viewBox="0 0 64 64">
    <circle class="po-green" cx="32" cy="32" r="28"/>
    <path class="po-yellow" d="M18 28h28v-4a14 14 0 00-28 0z"/>
    <path class="po-line" d="M15 28h34"/>
    <circle class="po-fill" cx="32" cy="38" r="12"/>
    <path class="po-line" d="M27 37h.1M37 37h.1M28 44c3 2 6 2 8 0"/>
  </symbol>

  <symbol id="icon-pfd-blocks" viewBox="0 0 64 64">
    <rect class="po-fill" x="9" y="14" width="18" height="16" rx="2"/>
    <rect class="po-fill" x="37" y="14" width="18" height="16" rx="2"/>
    <rect class="po-fill" x="9" y="40" width="18" height="16" rx="2"/>
    <rect class="po-fill" x="37" y="40" width="18" height="16" rx="2"/>
    <path class="po-line" d="M27 22h10M18 30v10M46 30v10M27 48h10"/>
  </symbol>

  <symbol id="icon-lightbulb" viewBox="0 0 64 64">
    <path class="po-yellow" d="M20 28a12 12 0 1124 0c0 6-5 8-7 14H27c-2-6-7-8-7-14z"/>
    <path class="po-line" d="M27 47h10M28 53h8M32 7v5M14 15l4 4M50 15l-4 4"/>
  </symbol>

  <symbol id="icon-check" viewBox="0 0 64 64">
    <path class="po-green" d="M10 34l14 14 30-32"/>
  </symbol>

  <symbol id="icon-lock" viewBox="0 0 64 64">
    <rect class="po-fill" x="17" y="28" width="30" height="24" rx="4"/>
    <path class="po-line" d="M23 28v-8a9 9 0 0118 0v8M32 38v6"/>
  </symbol>
</svg>
